{"title":"Red.Dawn.2012.CAM.XviD-MATINE","uid":7858170,"size":1454269437,"categoryP":"video","categoryS":"movies","magnet":"?xt=urn:btih:35c5d047e81a440ab96b47d452e3b053608cd1b6&amp;dn=Red.Dawn.2012.CAM.XviD-MATINE&amp;tr=udp%3A%2F%2Ftracker.openbittorrent.com%3A80&amp;tr=udp%3A%2F%2Fopen.demonii.com%3A1337&amp;tr=udp%3A%2F%2Ftracker.coppersurfer.tk%3A6969&amp;tr=udp%3A%2F%2Fexodus.desync.com%3A6969","seeders":0,"leechers":1,"uploader":"xxxlavalxxx","files":3,"time":1353842728,"description":"[url]http://www.imdb.com/title/tt1234719/[/url]\n\n\n\n[b]Plot: A group of teenagers look to save their town from an invasion of North Korean soldiers.\n \n\n\nDirector: \nDan Bradley\n\n Writers: \nCarl Ellsworth , Jeremy Passmore \n\nStars:\n Chris Hemsworth, Isabel Lucas and Josh Hutcherson\n\nGenres:\n Action \n\nCountry:\nUSA \n\nLanguage:\nEnglish [/b]\n\n\n\nFormat                                   : AVI\nFormat/Info                              : Audio Video Interleave\nFile size                                : 1.35 GiB\nDuration                                 : 1h 27mn\nOverall bit rate                         : 2 204 Kbps\n\nVideo\nID                                       : 0\nFormat                                   : AVC\nFormat/Info                              : Advanced Video Codec\nFormat profile                           : &lt;a class=&quot;__cf_email__&quot; href=&quot;/cdn-cgi/l/email-protection&quot; data-cfemail=&quot;165e7f717e565a233827&quot;&gt;[email&amp;#160;protected]&lt;/a&gt;&lt;script cf-hash='f9e31' type=&quot;text/javascript&quot;&gt;\n/* &lt;![CDATA[ */!function(){try{var t=&quot;currentScript&quot;in document?document.currentScript:function(){for(var t=document.getElementsByTagName(&quot;script&quot;),e=t.length;e--;)if(t[e].getAttribute(&quot;cf-hash&quot;))return t[e]}();if(t&amp;&amp;t.previousSibling){var e,r,n,i,c=t.previousSibling,a=c.getAttribute(&quot;data-cfemail&quot;);if(a){for(e=&quot;&quot;,r=parseInt(a.substr(0,2),16),n=2;a.length-n;n+=2)i=parseInt(a.substr(n,2),16)^r,e+=String.fromCharCode(i);e=document.createTextNode(e),c.parentNode.replaceChild(e,c)}}}catch(u){}}();/* ]]&gt; */&lt;/script&gt;\nFormat settings, CABAC                   : Yes\nFormat settings, ReFrames                : 2 frames\nCodec ID                                 : H264\nDuration                                 : 1h 27mn\nBit rate                                 : 1 874 Kbps\nWidth                                    : 720 pixels\nHeight                                   : 340 pixels\nDisplay aspect ratio                     : 2.118\nFrame rate                               : 24.000 fps\nColor space                              : YUV\nChroma subsampling                       : 4:2:0\nBit depth                                : 8 bits\nScan type                                : Progressive\nBits/(Pixel*Frame)                       : 0.319\nStream size                              : 1.15 GiB (85%)\n\nAudio\nID                                       : 1\nFormat                                   : MPEG Audio\nFormat version                           : Version 1\nFormat profile                           : Layer 3\nCodec ID                                 : 55\nCodec ID/Hint                            : MP3\nDuration                                 : 1h 27mn\nBit rate mode                            : Constant\nBit rate                                 : 320 Kbps\nChannel(s)                               : 2 channels\nSampling rate                            : 48.0 KHz\nCompression mode                         : Lossy\nStream size                              : 201 MiB (15%)\nAlignment                                : Aligned on interleaves\nInterleave, duration                     : 42 ms (1.00 video frame)\nInterleave, preload duration             : 384 ms\nWriting library                          : LAMELAME_MAJOR_VERSI\n\n\n\n &lt;a href=&quot;\nhttp://bayimg.com/OagJeaaEG&quot; rel=&quot;nofollow&quot; target=&quot;_NEW&quot;&gt;\nhttp://bayimg.com/OagJeaaEG&lt;/a&gt;\n &lt;a href=&quot;\nhttp://bayimg.com/OAgjGAaEG&quot; rel=&quot;nofollow&quot; target=&quot;_NEW&quot;&gt;\nhttp://bayimg.com/OAgjGAaEG&lt;/a&gt;\n &lt;a href=&quot;\nhttp://bayimg.com/oAgJhAAeG&quot; rel=&quot;nofollow&quot; target=&quot;_NEW&quot;&gt;\nhttp://bayimg.com/oAgJhAAeG&lt;/a&gt;","torrent":{"xt":"urn:btih:35c5d047e81a440ab96b47d452e3b053608cd1b6","amp;dn":"Red.Dawn.2012.CAM.XviD-MATINE","amp;tr":["udp%3A%2F%2Ftracker.openbittorrent.com%3A80","udp%3A%2F%2Fopen.demonii.com%3A1337","udp%3A%2F%2Ftracker.coppersurfer.tk%3A6969","udp%3A%2F%2Fexodus.desync.com%3A6969"],"infoHash":"35c5d047e81a440ab96b47d452e3b053608cd1b6","infoHashBuffer":{"type":"Buffer","data":[53,197,208,71,232,26,68,10,185,107,71,212,82,227,176,83,96,140,209,182]},"announce":[],"urlList":[]}}